<svg width="40" height="40" viewBox="0 0 40 40" fill="none" xmlns="http://www.w3.org/2000/svg">
<g clip-path="url(#clip0_200_11804)">
<path d="M29.9999 33.3333H6.66659V9.99996H21.6666V6.66663H6.66659C4.83325 6.66663 3.33325 8.16663 3.33325 9.99996V33.3333C3.33325 35.1666 4.83325 36.6666 6.66659 36.6666H29.9999C31.8333 36.6666 33.3333 35.1666 33.3333 33.3333V18.3333H29.9999V33.3333ZM17.0166 28.05L13.7499 24.1166L9.16658 30H27.4999L21.5999 22.15L17.0166 28.05ZM33.3333 6.66663V1.66663H29.9999V6.66663H24.9999C25.0166 6.68329 24.9999 9.99996 24.9999 9.99996H29.9999V14.9833C30.0166 15 33.3333 14.9833 33.3333 14.9833V9.99996H38.3333V6.66663H33.3333Z" fill="black" fill-opacity="0.5"/>
</g>
<defs>
<clipPath id="clip0_200_11804">
<rect width="40" height="40" fill="white"/>
</clipPath>
</defs>
</svg>
