<svg width="20" height="20" viewBox="0 0 20 20" fill="none" xmlns="http://www.w3.org/2000/svg">
<path d="M0 4.125C0 1.91586 1.79086 0.125 4 0.125H12C14.2091 0.125 16 1.91586 16 4.125V12.125C16 14.3341 14.2091 16.125 12 16.125H4C1.79086 16.125 0 14.3341 0 12.125V4.125Z" fill="#2093FE"/>
<path d="M15 19.875H7C6.58417 19.8695 6.24996 19.5309 6.25 19.115C6.25547 18.7047 6.58966 18.375 7 18.375H15C15.8637 18.375 16.6919 18.0312 17.3016 17.4196C17.9114 16.8079 18.2527 15.9787 18.25 15.115V7.115C18.25 6.70079 18.5858 6.365 19 6.365C19.4142 6.365 19.75 6.70079 19.75 7.115V15.115C19.75 17.74 17.625 19.8695 15 19.875Z" fill="#2093FE"/>
</svg>
