<svg width="15" height="14" viewBox="0 0 15 14" fill="none" xmlns="http://www.w3.org/2000/svg">
<path fill-rule="evenodd" clip-rule="evenodd" d="M0.509834 8.89013L4.69983 1.64013C5.23653 0.714926 6.22523 0.145449 7.29483 0.145449C8.36444 0.145449 9.35314 0.714926 9.88983 1.64013L14.0798 8.89013C14.6159 9.81864 14.6157 10.9626 14.0794 11.891C13.543 12.8193 12.552 13.3908 11.4798 13.3901H3.10983C2.03769 13.3908 1.04668 12.8193 0.510315 11.891C-0.026053 10.9626 -0.0262362 9.81864 0.509834 8.89013ZM12.5198 9.79013L8.33984 2.54013C8.12687 2.16708 7.72938 1.93777 7.29983 1.94013C6.86727 1.93626 6.46611 2.1655 6.24983 2.54013L2.06983 9.79013C1.96084 9.97146 1.90216 10.1786 1.89983 10.3901C1.89983 11.0584 2.44157 11.6001 3.10983 11.6001H11.4798C11.8007 11.6001 12.1085 11.4727 12.3354 11.2457C12.5624 11.0188 12.6898 10.711 12.6898 10.3901C12.6875 10.1786 12.6288 9.97146 12.5198 9.79013Z" fill="black"/>
</svg>
